# xmcd
#
# Track frame offsets: 
#        150
#        15240
#        29920
#        43295
#        57663
#        72135
#        85720
#        98870
#        111510
#        126163
#        142923
#        155703
#        168943
#        181870
#        195865
#        209958
#        222118
#        236053
#        248548
#        262783
#        276980
#        286725
#        300523
#        312098
#
# Disc length: 4342 seconds
#
# Revision: 0
# Processed by: cddbd v1.5.2PL0 Copyright (c) Steve Scherf et al.
# Submitted via: ExactAudioCopyFreeDBPlugin 1.0
#
DISCID=5810f418
DTITLE=The Blue Sky Boys - Within The Circle and Who Wouldn't Be Lonely
DYEAR=1900
DGENRE=Old Time
TTITLE0=Sweet Evalina
TTITLE1=No Home
TTITLE2=What Have You Done
TTITLE3=Sing A Song For The Blind
TTITLE4=Within The Circle
TTITLE5=They're All Home But One
TTITLE6=Hymns My Mother Sang
TTITLE7=Have No Desire To Roam
TTITLE8=There's No Disappointment In Heaven
TTITLE9=Story of The Knoxville Girl
TTITLE10=On The Old Plantation
TTITLE11=In My Little Home In Tennessee
TTITLE12=Beautiful, Beautiful Brown Eyes
TTITLE13=The Prisoner's Dream
TTITLE14=Answer To The Prisoner's Dream
TTITLE15=When The Stars Begin To Fall
TTITLE16=We Buried Her
TTITLE17=Heaven Holds All For Me
TTITLE18=Little Bessie
TTITLE19=I Need The Prayers
TTITLE20=Old Fashioned Meeting
TTITLE21=Katie Dear
TTITLE22=Who Wouldn't Be Lonely
TTITLE23=Lifeline
EXTD=
EXTT0=
EXTT1=
EXTT2=
EXTT3=
EXTT4=
EXTT5=
EXTT6=
EXTT7=
EXTT8=
EXTT9=
EXTT10=
EXTT11=
EXTT12=
EXTT13=
EXTT14=
EXTT15=
EXTT16=
EXTT17=
EXTT18=
EXTT19=
EXTT20=
EXTT21=
EXTT22=
EXTT23=
PLAYORDER=
